<svg width="24" height="24" viewBox="0 0 24 24" fill="none" xmlns="http://www.w3.org/2000/svg">
<path d="M21.8575 3.21754H17.3575V1.50325C17.3575 1.3854 17.2611 1.28897 17.1433 1.28897H15.6433C15.5254 1.28897 15.429 1.3854 15.429 1.50325V3.21754H8.57183V1.50325C8.57183 1.3854 8.4754 1.28897 8.35755 1.28897H6.85755C6.73969 1.28897 6.64326 1.3854 6.64326 1.50325V3.21754H2.14326C1.66915 3.21754 1.28612 3.60058 1.28612 4.07468V21.8604C1.28612 22.3345 1.66915 22.7175 2.14326 22.7175H21.8575C22.3317 22.7175 22.7147 22.3345 22.7147 21.8604V4.07468C22.7147 3.60058 22.3317 3.21754 21.8575 3.21754ZM20.7861 20.789H3.21469V10.6104H20.7861V20.789ZM3.21469 8.78897V5.14611H6.64326V6.43183C6.64326 6.54968 6.73969 6.64611 6.85755 6.64611H8.35755C8.4754 6.64611 8.57183 6.54968 8.57183 6.43183V5.14611H15.429V6.43183C15.429 6.54968 15.5254 6.64611 15.6433 6.64611H17.1433C17.2611 6.64611 17.3575 6.54968 17.3575 6.43183V5.14611H20.7861V8.78897H3.21469Z" fill="white" fill-opacity="0.8"/>
</svg>
