<svg width="24" height="24" viewBox="0 0 24 24" fill="none" xmlns="http://www.w3.org/2000/svg">
<g clip-path="url(#clip0_303_2363)">
<path d="M12 0C5.37321 0 0 5.37321 0 12C0 18.6268 5.37321 24 12 24C18.6268 24 24 18.6268 24 12C24 5.37321 18.6268 0 12 0ZM12 21.9643C6.49821 21.9643 2.03571 17.5018 2.03571 12C2.03571 6.49821 6.49821 2.03571 12 2.03571C17.5018 2.03571 21.9643 6.49821 21.9643 12C21.9643 17.5018 17.5018 21.9643 12 21.9643Z" fill="#4F4F4F"/>
<path d="M16.6797 15.3886L12.86 12.627V5.99749C12.86 5.87963 12.7636 5.7832 12.6457 5.7832H11.3574C11.2395 5.7832 11.1431 5.87963 11.1431 5.99749V13.3743C11.1431 13.4439 11.1752 13.5082 11.2315 13.5484L15.6618 16.7787C15.7582 16.8484 15.8922 16.827 15.9618 16.7332L16.7279 15.6886C16.7975 15.5895 16.7761 15.4555 16.6797 15.3886Z" fill="#4F4F4F"/>
</g>
<defs>
<clipPath id="clip0_303_2363">
<rect width="24" height="24" fill="white"/>
</clipPath>
</defs>
</svg>
