<svg width="24" height="24" viewBox="0 0 24 24" fill="none" xmlns="http://www.w3.org/2000/svg">
<path d="M7.92815 3.21185H7.71387C7.83173 3.21185 7.92815 3.11542 7.92815 2.99757V3.21185H16.071V2.99757C16.071 3.11542 16.1674 3.21185 16.2853 3.21185H16.071V5.14042H17.9996V2.99757C17.9996 2.05203 17.2308 1.28328 16.2853 1.28328H7.71387C6.76833 1.28328 5.99958 2.05203 5.99958 2.99757V5.14042H7.92815V3.21185ZM21.4282 5.14042H2.57101C2.0969 5.14042 1.71387 5.52346 1.71387 5.99757V6.85471C1.71387 6.97257 1.8103 7.06899 1.92815 7.06899H3.54601L4.20762 21.0779C4.25047 21.9913 5.00583 22.7119 5.91923 22.7119H18.0799C18.996 22.7119 19.7487 21.994 19.7915 21.0779L20.4532 7.06899H22.071C22.1889 7.06899 22.2853 6.97257 22.2853 6.85471V5.99757C22.2853 5.52346 21.9023 5.14042 21.4282 5.14042ZM17.8737 20.7833H6.12548L5.47726 7.06899H18.5219L17.8737 20.7833Z" fill="#4F4F4F"/>
</svg>
