<svg width="24" height="24" viewBox="0 0 24 24" fill="none" xmlns="http://www.w3.org/2000/svg">
<path d="M5.18808 18.4261C5.24165 18.4261 5.29522 18.4208 5.34879 18.4127L9.85415 17.6226C9.90772 17.6119 9.95862 17.5877 9.99612 17.5476L21.3506 6.1931C21.3754 6.16832 21.3951 6.13889 21.4086 6.10648C21.422 6.07408 21.4289 6.03934 21.4289 6.00426C21.4289 5.96918 21.422 5.93444 21.4086 5.90204C21.3951 5.86964 21.3754 5.8402 21.3506 5.81542L16.8988 1.36096C16.8479 1.31007 16.7809 1.28328 16.7086 1.28328C16.6363 1.28328 16.5693 1.31007 16.5184 1.36096L5.16397 12.7154C5.12379 12.7556 5.09969 12.8038 5.08897 12.8574L4.29879 17.3627C4.27274 17.5062 4.28205 17.6539 4.32592 17.793C4.36979 17.9321 4.4469 18.0584 4.55058 18.161C4.72736 18.3324 4.94969 18.4261 5.18808 18.4261ZM6.99344 13.7547L16.7086 4.04221L18.672 6.0056L8.95683 15.7181L6.57558 16.1386L6.99344 13.7547ZM21.8568 20.6761H2.14254C1.66844 20.6761 1.2854 21.0592 1.2854 21.5333V22.4976C1.2854 22.6154 1.38183 22.7119 1.49969 22.7119H22.4997C22.6175 22.7119 22.714 22.6154 22.714 22.4976V21.5333C22.714 21.0592 22.3309 20.6761 21.8568 20.6761Z" fill="#4F4F4F"/>
</svg>
