<svg width="24" height="24" viewBox="0 0 24 24" fill="none" xmlns="http://www.w3.org/2000/svg">
<g clip-path="url(#clip0_383_301)">
<path d="M23.6398 11.8109L13.2898 1.4663L12.5961 0.772546C12.438 0.615519 12.2242 0.52739 12.0014 0.52739C11.7786 0.52739 11.5648 0.615519 11.4068 0.772546L0.363019 11.8109C0.201049 11.9723 0.0730412 12.1644 -0.0134482 12.3761C-0.0999376 12.5877 -0.143156 12.8145 -0.140552 13.0431C-0.129838 13.9859 0.654984 14.7386 1.59784 14.7386H2.73623V23.4627H21.2666V14.7386H22.4291C22.8871 14.7386 23.3184 14.5592 23.6425 14.235C23.8021 14.076 23.9285 13.8868 24.0145 13.6785C24.1005 13.4703 24.1443 13.247 24.1434 13.0217C24.1434 12.5663 23.9639 12.135 23.6398 11.8109ZM13.5014 21.5342H10.5014V16.0699H13.5014V21.5342ZM19.338 12.81V21.5342H15.2157V15.427C15.2157 14.835 14.7362 14.3556 14.1443 14.3556H9.85855C9.26659 14.3556 8.78713 14.835 8.78713 15.427V21.5342H4.6648V12.81H2.09338L12.0041 2.90737L12.6228 3.52612L21.9121 12.81H19.338Z" fill="white"/>
</g>
<defs>
<clipPath id="clip0_383_301">
<rect width="24" height="24" fill="white"/>
</clipPath>
</defs>
</svg>
