<svg width="122" height="44" viewBox="0 0 122 44" fill="none" xmlns="http://www.w3.org/2000/svg">
<path d="M12.072 29.1645H7.49143C7.03886 29.1645 6.83143 28.4758 7.17771 28.121L8.81314 26.4389C10.4383 24.784 11.5851 23.3002 12.2554 21.9895C12.9257 20.6789 13.2617 19.2765 13.2617 17.7802C13.2617 16.2838 12.9874 15.0838 12.4406 13.9673C11.892 12.8528 11.1326 11.9722 10.1589 11.3273C9.18514 10.6845 8.08457 10.361 6.85714 10.361C5.76171 10.361 4.74171 10.6323 3.79714 11.1708C2.85257 11.7113 2.07771 12.448 1.47429 13.3788C0.869143 14.3095 0.481714 15.3739 0.312 16.5697C0.217714 17.2146 0.198857 17.7885 0.255429 18.2935C0.293143 18.9843 0.486857 19.5353 0.836571 19.9485C1.18629 20.3617 1.62514 20.5704 2.15486 20.5704C2.68457 20.5704 3.09086 20.3868 3.43029 20.0195C3.76971 19.6522 3.97714 19.1575 4.05429 18.5356L4.11086 18.1224C4.12971 17.9388 4.14857 17.7426 4.16743 17.536C4.224 16.9391 4.36971 16.4257 4.60629 16C4.84286 15.5742 5.13943 15.2466 5.49943 15.017C5.85771 14.7875 6.27429 14.6727 6.74571 14.6727C7.52057 14.6727 8.14286 14.9774 8.616 15.5868C9.08743 16.1962 9.324 17.008 9.324 18.0181C9.324 18.9384 9.11657 19.7941 8.7 20.5871C8.28343 21.3802 7.55657 22.3297 6.51771 23.4337L0.793714 29.3377C0.264 29.8678 0 30.5106 0 31.2702C0 31.8922 0.183429 32.4327 0.552 32.8918C0.920571 33.353 1.36971 33.5826 1.89771 33.5826L12.0703 33.5471C12.6189 33.5471 13.0663 33.3405 13.416 32.9252C13.7657 32.512 13.9406 31.9819 13.9406 31.3391C13.9406 30.6963 13.7657 30.2017 13.416 29.7864C13.0663 29.3732 12.6171 29.1645 12.0703 29.1645H12.072Z" fill="white"/>
<path d="M21.427 28.6407H19.4624C18.9138 28.6407 18.475 28.4278 18.1441 28.0021C17.8133 27.5763 17.6487 27.0775 17.6487 26.5015C17.6487 25.9276 17.815 25.4205 18.1441 24.9843C18.475 24.5481 18.9138 24.329 19.4624 24.329H21.427C21.6961 24.329 21.9121 24.064 21.9121 23.7384V21.3196C21.9121 20.6539 22.0955 20.0946 22.4641 19.6459C22.8327 19.1972 23.2818 18.9739 23.8098 18.9739C24.3378 18.9739 24.8161 19.1972 25.1847 19.6459C25.5533 20.0946 25.7367 20.6518 25.7367 21.3196V23.7384C25.7367 24.0661 25.9544 24.329 26.2218 24.329H28.1864C28.735 24.329 29.1738 24.5481 29.5047 24.9843C29.8355 25.4205 30.0001 25.9276 30.0001 26.5015C30.0001 27.0754 29.8338 27.5763 29.5047 28.0021C29.1738 28.4278 28.735 28.6407 28.1864 28.6407H26.2218C25.9527 28.6407 25.7367 28.9057 25.7367 29.2313V31.6814C25.7367 32.3492 25.5533 32.9127 25.1847 33.3718C24.8161 33.8309 24.3584 34.0626 23.8098 34.0626C23.3195 34.0626 22.8533 33.8372 22.5018 33.4198C22.1075 32.9523 21.9104 32.3721 21.9104 31.6834V29.2334C21.9104 28.9057 21.6927 28.6427 21.4253 28.6427L21.427 28.6407Z" fill="#C82E3E"/>
<path d="M16.5155 25.7148L21.3447 13.5374C21.439 13.2619 21.487 12.9864 21.487 12.7088C21.487 12.0661 21.2984 11.513 20.9195 11.0539C20.5407 10.5948 20.0881 10.3631 19.5601 10.3631C19.1641 10.3631 18.8092 10.5071 18.4972 10.7951C18.1852 11.0831 17.9452 11.4441 17.7755 11.8824L12.5332 25.2264C12.4201 25.5708 12.3635 25.9047 12.3635 26.2261C12.3635 26.848 12.5521 27.3885 12.931 27.8476C13.3081 28.3088 13.7521 28.5384 14.263 28.5384H16.5961C16.7898 28.5384 16.9287 28.2567 16.8001 28.0814C16.471 27.6306 16.207 26.537 16.5207 25.7148H16.5155Z" fill="white"/>
<path d="M39.2 5.8C41.104 6.04 42.464 7.32 43.792 9.016C45.12 7.32 46.48 6.04 48.368 5.8V17H46.656V8.312L43.856 11.256H43.696L40.928 8.312V17H39.2V5.8ZM54.2665 17.16C51.8665 17.16 50.1225 15.48 50.1225 13C50.1225 10.52 51.8665 8.84 54.2665 8.84C56.6665 8.84 58.4425 10.52 58.4425 13C58.4425 15.48 56.6665 17.16 54.2665 17.16ZM54.2825 15.608C55.7225 15.608 56.8105 14.568 56.8105 13C56.8105 11.432 55.7225 10.392 54.2825 10.392C52.8425 10.392 51.7545 11.432 51.7545 13C51.7545 14.568 52.8425 15.608 54.2825 15.608ZM63.704 17.096C61.304 17.096 59.56 15.48 59.56 13C59.56 10.52 61.304 8.92 63.704 8.92C63.928 8.92 64.136 8.936 64.344 8.968V10.52C64.152 10.488 63.944 10.472 63.72 10.472C62.28 10.472 61.192 11.432 61.192 13C61.192 14.568 62.28 15.544 63.72 15.544C63.944 15.544 64.152 15.528 64.344 15.48V17.048C64.136 17.08 63.928 17.096 63.704 17.096ZM69.4964 17L68.5364 13.64H67.7524V17H66.1844V9H67.7524V12.136H68.4724L69.4004 9H71.0164L69.8004 12.744L71.1604 17H69.4964ZM76.1884 17.16C73.7884 17.16 72.0444 15.48 72.0444 13C72.0444 10.52 73.7884 8.84 76.1884 8.84C78.5884 8.84 80.3644 10.52 80.3644 13C80.3644 15.48 78.5884 17.16 76.1884 17.16ZM76.2044 15.608C77.6444 15.608 78.7324 14.568 78.7324 13C78.7324 11.432 77.6444 10.392 76.2044 10.392C74.7644 10.392 73.6764 11.432 73.6764 13C73.6764 14.568 74.7644 15.608 76.2044 15.608ZM83.4499 9C85.2899 9 86.4419 9.672 86.4419 11.24C86.4419 11.992 86.1379 12.584 85.5459 12.904C86.3139 13.176 86.7619 13.768 86.7619 14.68C86.7619 16.296 85.6739 17 83.4499 17H82.1219V9H83.4499ZM83.5619 15.656C84.5699 15.656 85.2899 15.4 85.2899 14.616C85.2899 13.832 84.5699 13.576 83.5619 13.576V15.656ZM83.5619 12.232C84.3619 12.232 84.9699 12.04 84.9699 11.288C84.9699 10.536 84.3619 10.328 83.5619 10.328V12.232ZM92.0321 17.096C89.6321 17.096 87.8881 15.48 87.8881 13C87.8881 10.52 89.6321 8.92 92.0321 8.92C92.2561 8.92 92.4641 8.936 92.6721 8.968V10.52C92.4801 10.488 92.2721 10.472 92.0481 10.472C90.6081 10.472 89.5201 11.432 89.5201 13C89.5201 14.568 90.6081 15.544 92.0481 15.544C92.2721 15.544 92.4801 15.528 92.6721 15.48V17.048C92.4641 17.08 92.2561 17.096 92.0321 17.096ZM97.8245 17L96.8645 13.64H96.0805V17H94.5125V9H96.0805V12.136H96.8005L97.7285 9H99.3445L98.1285 12.744L99.4885 17H97.8245ZM104.373 17.16C102.101 17.16 100.373 15.48 100.373 13C100.373 10.52 102.101 8.84 104.373 8.84C105.493 8.84 106.421 9.192 106.933 9.864V9H108.453V17H106.933V16.12C106.421 16.792 105.493 17.16 104.373 17.16ZM104.533 15.608C105.925 15.608 107.013 14.568 107.013 13C107.013 11.432 105.925 10.392 104.533 10.392C103.093 10.392 102.005 11.432 102.005 13C102.005 14.568 103.093 15.608 104.533 15.608ZM115.384 17H113.816V14.088L113.352 14.072L112.104 17H110.376L111.864 13.624C111.144 13.224 110.648 12.536 110.648 11.56C110.648 9.848 112.056 9 114.088 9H115.384V17ZM113.864 10.44C112.824 10.44 112.2 10.824 112.2 11.56C112.2 12.296 112.824 12.696 113.864 12.696V10.44ZM42.768 39.16C40.112 39.16 38.64 37.4 38.64 34.6C38.64 30.248 39.728 28.072 43.088 27.848L46.128 27.64V29.24L43.104 29.448C41.52 29.544 40.608 30.376 40.32 32.2C40.976 31.496 41.952 31.192 42.896 31.192C45.248 31.192 46.944 32.792 46.944 35.16C46.944 37.48 45.216 39.16 42.768 39.16ZM42.784 37.608C44.256 37.608 45.312 36.6 45.312 35.16C45.312 33.72 44.256 32.712 42.784 32.712C41.312 32.712 40.256 33.72 40.256 35.16C40.256 36.6 41.312 37.608 42.784 37.608ZM52.204 39.16C49.804 39.16 48.06 37.48 48.06 35C48.06 32.52 49.804 30.84 52.204 30.84C54.604 30.84 56.38 32.52 56.38 35C56.38 37.48 54.604 39.16 52.204 39.16ZM52.22 37.608C53.66 37.608 54.748 36.568 54.748 35C54.748 33.432 53.66 32.392 52.22 32.392C50.78 32.392 49.692 33.432 49.692 35C49.692 36.568 50.78 37.608 52.22 37.608ZM57.2613 37.592C57.8213 37.592 58.1733 37.336 58.2053 36.344L58.4133 31H62.6853V39H61.1653V32.44H59.8693L59.7253 36.344C59.6613 38.36 58.9413 39.064 57.2613 39.08V37.592ZM65.0906 31H66.6906V33.464C68.5306 33.464 69.9226 34.424 69.9226 36.232C69.9226 38.104 68.4506 39 66.4186 39H65.0906V31ZM66.6746 37.512C67.5866 37.512 68.3066 37.128 68.3066 36.232C68.3066 35.32 67.5866 34.936 66.6746 34.936V37.512ZM75.0143 39V35.64H73.2063V39H71.6063V31H73.2063V34.136H75.0143V31H76.6143V39H75.0143ZM82.3405 39V34.712L79.5405 39.08H79.0125V31H80.5325V35.272L83.3325 30.92H83.8605V39H82.3405ZM89.6705 31H91.2705V37.496H91.8145V40.76H90.3745V39H86.2625V31H87.8625V37.496H89.6705V31ZM96.9663 39.16C94.6943 39.16 92.9663 37.48 92.9663 35C92.9663 32.52 94.6943 30.84 96.9663 30.84C98.0863 30.84 99.0143 31.192 99.5263 31.864V31H101.046V39H99.5263V38.12C99.0143 38.792 98.0863 39.16 96.9663 39.16ZM97.1263 37.608C98.5183 37.608 99.6063 36.568 99.6063 35C99.6063 33.432 98.5183 32.392 97.1263 32.392C95.6863 32.392 94.5983 33.432 94.5983 35C94.5983 36.568 95.6863 37.608 97.1263 37.608Z" fill="white"/>
</svg>
